<svg xmlns="http://www.w3.org/2000/svg" viewBox="0 0 413 158.98"><defs><style>.cls-1{fill:#fff;}.cls-2{fill:#89d718;}</style></defs><g id="Camada_2" data-name="Camada 2"><g id="Camada_1-2" data-name="Camada 1"><g id="Logo_branco" data-name="Logo branco"><path class="cls-1" d="M247.4.23a43,43,0,0,0-34,16.63,43,43,0,0,0-67.94,0,43,43,0,0,0-77,25.42h0a24.87,24.87,0,0,1-49.61,2.54,2.76,2.76,0,0,0-2.72-2.54H3.38a2.75,2.75,0,0,0-2.76,2.9A43,43,0,0,0,68.46,77.41v33.23a2.77,2.77,0,0,0,2.76,2.76H83.9a2.76,2.76,0,0,0,2.76-2.76V45.46h-.13c.06-.72.09-1.44.11-2.17h0A24.87,24.87,0,1,1,114,68a2.74,2.74,0,0,0-2.42,2.74V83.51a2.74,2.74,0,0,0,2.9,2.75,42.75,42.75,0,0,0,22-7.84v4.5a2.76,2.76,0,0,0,2.76,2.76h12.69a2.75,2.75,0,0,0,2.75-2.76V45.46h-.05c0-.72.05-1.44.05-2.17a24.87,24.87,0,0,1,49.74,0h0a43.13,43.13,0,0,0,40.15,42,2.75,2.75,0,0,0,2.9-2.76V69.73a2.74,2.74,0,0,0-2.51-2.7,24.9,24.9,0,0,1-22.35-24.24,24.87,24.87,0,0,1,48-8.6H250.15A2.76,2.76,0,0,0,247.4,37V49.63a2.75,2.75,0,0,0,2.75,2.76H287.7a2.75,2.75,0,0,0,2.76-2.76V43.29A43.11,43.11,0,0,0,247.4.23"/><path class="cls-1" d="M344.43,50.15V37.46a2.76,2.76,0,0,0-2.75-2.76H315.39V2.76A2.76,2.76,0,0,0,312.63,0H299.94a2.76,2.76,0,0,0-2.76,2.76v70.8h0a43.11,43.11,0,0,0,43,41.7h1.43a2.76,2.76,0,0,0,2.75-2.76V99.82a2.75,2.75,0,0,0-2.75-2.76h-1.43a24.86,24.86,0,0,1-24.86-24.87V52.9h26.29a2.75,2.75,0,0,0,2.75-2.75"/><path class="cls-1" d="M204.38,44.12V82.91a2.75,2.75,0,0,0,2.76,2.76h12.68a2.76,2.76,0,0,0,2.76-2.76V44.12a2.76,2.76,0,0,0-2.76-2.75H207.14a2.75,2.75,0,0,0-2.76,2.75"/><path class="cls-2" d="M70.89,157.7A6.71,6.71,0,0,1,68.74,154a27.77,27.77,0,0,1-.61-6.48,25.07,25.07,0,0,1,.67-6.43,6.54,6.54,0,0,1,2.38-3.71A7.91,7.91,0,0,1,76,136.1a33.34,33.34,0,0,1,7.36.82v2.36a55.58,55.58,0,0,0-6.84-.43,5.41,5.41,0,0,0-3.27.84,4.48,4.48,0,0,0-1.57,2.69,22.88,22.88,0,0,0-.45,5.15,23.51,23.51,0,0,0,.45,5.28,4.23,4.23,0,0,0,1.49,2.58,5.23,5.23,0,0,0,3,.75,15.27,15.27,0,0,0,5.17-1v-6h-5v-2.35a35.23,35.23,0,0,1,5.1-.3c.9,0,1.85,0,2.87.12V158.8H82l-.46-1.56a16,16,0,0,1-2.92,1.19,11.22,11.22,0,0,1-3.4.52,6.67,6.67,0,0,1-4.33-1.25"/><path class="cls-2" d="M94.86,136.28h9a6.34,6.34,0,0,1,4.38,1.45q1.63,1.46,1.64,5.36c0,2.1-.38,3.6-1.15,4.49a5.75,5.75,0,0,1-2.92,1.84l4.49,9.38h-3.11l-4.16-9-4.18-.07c-.23,0-.53,0-.92,0v9.05H94.86Zm8.53,11.09a3.38,3.38,0,0,0,2.55-.92,4.8,4.8,0,0,0,.9-3.36c0-1.56-.3-2.63-.92-3.2a3.56,3.56,0,0,0-2.53-.86H98v8.34Z"/><path class="cls-2" d="M123,158.13a5.67,5.67,0,0,1-2.82-3.3,20.71,20.71,0,0,1-1-7.21,20.83,20.83,0,0,1,1-7.26A5.86,5.86,0,0,1,123,137a11.9,11.9,0,0,1,5-.88,12.08,12.08,0,0,1,5.1.88,5.87,5.87,0,0,1,2.83,3.38,21.15,21.15,0,0,1,1,7.26,20.75,20.75,0,0,1-1,7.21,5.72,5.72,0,0,1-2.83,3.3,15.67,15.67,0,0,1-10.18,0m8.56-2.54a3.86,3.86,0,0,0,1.77-2.47,20.42,20.42,0,0,0,.55-5.5,21.57,21.57,0,0,0-.55-5.69,3.77,3.77,0,0,0-1.76-2.47,7.88,7.88,0,0,0-3.49-.61,7.63,7.63,0,0,0-3.41.62,4,4,0,0,0-1.8,2.49,19.84,19.84,0,0,0-.6,5.66,20.8,20.8,0,0,0,.54,5.51,3.74,3.74,0,0,0,1.74,2.46,9.92,9.92,0,0,0,7,0"/><polygon class="cls-2" points="145.13 136.28 148.3 136.28 152.76 154.43 157.93 136.28 160.89 136.28 166 154.43 170.49 136.28 173.63 136.28 167.98 158.8 164.74 158.8 159.4 140.65 154.02 158.8 150.78 158.8 145.13 136.28"/><polygon class="cls-2" points="187.84 139.03 181.12 139.03 181.12 136.28 197.65 136.28 197.65 139.03 190.93 139.03 190.93 158.8 187.84 158.8 187.84 139.03"/><polygon class="cls-2" points="206.48 136.28 209.57 136.28 209.57 146.4 219.99 146.4 219.99 136.28 223.04 136.28 223.04 158.8 219.99 158.8 219.99 149.15 209.57 149.15 209.57 158.8 206.48 158.8 206.48 136.28"/><path class="cls-2" d="M247.88,136.28H257a6.27,6.27,0,0,1,4.32,1.53q1.73,1.53,1.73,5.83t-1.78,6a6.16,6.16,0,0,1-4.3,1.6c-.63,0-1.59,0-2.86-.12s-2.33-.16-3.16-.25v8h-3.09Zm8.68,12.16q3.42,0,3.42-4.76T256.74,139H251v9.41Z"/><path class="cls-2" d="M277.09,136.28H281l7.52,22.52h-3.21l-2-5.9h-8.61l-2,5.9h-3.17Zm5.47,13.84L279,138.94l-3.58,11.18Z"/><path class="cls-2" d="M297.75,136.28h9a6.39,6.39,0,0,1,4.39,1.45c1.08,1,1.63,2.76,1.63,5.36,0,2.1-.38,3.6-1.15,4.49a5.73,5.73,0,0,1-2.91,1.84l4.49,9.38h-3.12l-4.15-9-4.19-.07c-.22,0-.53,0-.92,0v9.05h-3.08Zm8.52,11.09a3.38,3.38,0,0,0,2.55-.92,4.8,4.8,0,0,0,.9-3.36,4.34,4.34,0,0,0-.91-3.2,3.58,3.58,0,0,0-2.54-.86h-5.44v8.34Z"/><polygon class="cls-2" points="327.6 139.03 320.88 139.03 320.88 136.28 337.41 136.28 337.41 139.03 330.69 139.03 330.69 158.8 327.6 158.8 327.6 139.03"/><polygon class="cls-2" points="346.57 136.28 349.08 136.28 360.11 153.54 360.11 136.28 363.17 136.28 363.17 158.8 360.69 158.8 349.66 141.54 349.66 158.8 346.57 158.8 346.57 136.28"/><path class="cls-2" d="M374.81,158c-.94-.61-1.41-1.83-1.41-3.64V141a4.42,4.42,0,0,1,1.34-3.59,4.89,4.89,0,0,1,3.24-1.12q3.64,0,8.22.24l1.38.07v2.53H378.9a2.13,2.13,0,0,0-2.41,2.42v4.67l9.71.19v2.38l-9.71.21v4.61a2.33,2.33,0,0,0,.67,2,3,3,0,0,0,1.8.5h8.62v2.53c-3.51.23-6.62.34-9.35.34a6.12,6.12,0,0,1-3.42-.91"/><path class="cls-2" d="M397.54,136.28h9a6.35,6.35,0,0,1,4.39,1.45q1.63,1.46,1.63,5.36c0,2.1-.38,3.6-1.14,4.49a5.8,5.8,0,0,1-2.92,1.84L413,158.8h-3.12l-4.15-9-4.19-.07c-.22,0-.53,0-.92,0v9.05h-3.08Zm8.52,11.09a3.36,3.36,0,0,0,2.55-.92,4.74,4.74,0,0,0,.91-3.36,4.34,4.34,0,0,0-.92-3.2,3.58,3.58,0,0,0-2.54-.86h-5.44v8.34Z"/><path class="cls-2" d="M0,16.14v-6A5.64,5.64,0,0,1,8.46,5.23l5.22,3,5.21,3a5.63,5.63,0,0,1,0,9.77l-5.21,3-5.22,3A5.64,5.64,0,0,1,0,22.17Z"/></g></g></g></svg>