<svg viewBox="0 0 4000 2600" xmlns="http://www.w3.org/2000/svg">
  <path d="m2 0h4000v2600h-4000z" fill="#fff"></path>
  <path d="m2009.44 2007.26h-1911.79v-1910.53h1911.63z" fill="#00acc9"></path>
  <path d="m2001.14 96.73h1911.8v1912.92h-1911.8z" fill="#00acc9"></path>
  <path d="m1572.81 1490.94-373.85-373.94 372.9-372.91c45.36-45.36 45.36-118.73 0-164.41-45.04-45.12-118.82-45.12-164.33 0l-372.75 373.22-372.91-373.3c-45.83-45.04-119.14-45.04-164.34 0-45.35 45.83-45.35 119.05 0 164.49l373.07 372.91-373.86 373.94c-45.52 45.12-45.36 118.82 0 164.25 22.52 22.67 52.22 33.86 82.09 33.78 29.54.08 59.4-11.1 82.57-33.78l373.38-373.87 373.54 373.87c22.52 22.67 52.54 33.78 82.25 33.78 29.86 0 59.57-11.18 82.24-33.78 45.52-45.44 45.52-119.14 0-164.25z"></path>
  <path d="m2549.88 1703.02c-27.63 0-54.47-9.83-75.54-28.19l-11.18-9.58c-25.71-21.72-40.25-53.89-40.25-88.15v-912.78c0-64.2 52.06-116.34 116.1-116.34 64.2-.08 115.95 52.14 115.95 116.34v806.34l808.09-.08c63.88 0 116.1 51.98 116.1 116.18 0 64.36-52.22 116.27-116.1 116.27h-913.17z"></path>
  <path d="m461.13 2436.74c3.2-4.79 6.08-10.38 9.43-14.93 3.19-4.79 8.62-6.22 12.62-3.03 2.08 2 30.03 25.32 58.61 25.32 25.07 0 41.36-15.57 41.36-34.1 0-21.96-19.32-36.09-55.58-51.1-37.2-15.65-66.44-35.05-66.44-77.38 0-28.99 22.04-67.95 80.17-67.95 36.57 0 64.36 19 67.71 21.72 2.71 1.59 5.75 6.94 2.24 12.37-2.88 4.4-6.07 9.43-9.26 13.9-2.88 4.87-7.51 6.94-12.78 3.51-2.55-1.36-28.42-18.2-49.35-18.2-30.82 0-41.36 19.64-41.36 33.06 0 20.92 15.97 33.61 46.31 46.15 42.64 17.17 79.05 37.38 78.89 82.17 0 38.01-34.18 69.07-81.77 69.07-44.4-.07-72.82-23.39-78.89-28.9-3.03-2.89-5.58-5.53-1.91-11.68z"></path>
  <path d="m933.85 2213.56c73.14 0 132.07 59 131.92 132.23 0 73.55-58.77 131.44-131.92 131.51-73.14 0-131.6-57.97-131.6-131.51 0-73.14 58.46-132.23 131.6-132.23zm0 227.1c52.38 0 95.34-42.48 95.34-94.87 0-51.9-42.96-95.66-95.34-95.66-51.91 0-95.02 43.76-95.02 95.66 0 52.39 43.11 94.87 95.02 94.87z"></path>
  <path d="m1265.07 2224.26c0-3.75 2.71-7.02 6.7-7.02h24.28c3.83 0 7.19 3.19 7.19 6.94v215.52h99.18c3.99 0 7.02 3.19 7.02 6.87l.16 20.12c-.16 3.59-3.19 7.02-7.18 6.94l-130.64.08c-3.99 0-6.7-3.43-6.7-7.11v-242.34z"></path>
  <path d="m1586.55 2224.18c-.16-3.67 3.35-6.94 7.19-6.87l24.28-.07c4.15.07 7.02 3.27 7.02 7.02l-.16 151.24c.16 36.73 23.79 65.16 61 65.16 37.69 0 61.49-28.19 61.49-64.28v-152.12c0-3.75 2.88-7.02 7.02-7.02l24.44.07c3.83-.07 7.34 3.2 7.19 6.87l.16 153.88c0 55.65-42.32 99.25-100.3 99.25-57.65-.07-99.49-43.6-99.49-99.25z"></path>
  <path d="m2035.63 2251.81h-59.89c-3.83 0-6.55-3.43-6.55-7.02v-20.61c0-3.75 2.71-6.94 6.55-6.94l157.79.07c3.83-.07 6.86 3.12 6.86 6.87v20.61c0 3.59-3.03 7.02-6.86 6.94l-59.73.08v214.8c0 3.67-3.52 7.11-6.87 7.11h-24.43c-3.35 0-6.87-3.43-6.87-7.11z"></path>
  <path d="m2327.08 2224.18c0-3.75 3.04-6.94 6.55-6.94h24.28c3.52 0 7.19 3.19 7.19 6.94v242.51c0 3.67-3.67 7.02-7.19 7.02h-24.28c-3.51 0-6.55-3.35-6.55-7.02z"></path>
  <path d="m2695.68 2213.56c73.3 0 131.91 59 131.91 132.23 0 73.55-58.61 131.51-131.91 131.51-73.47-.07-131.6-57.97-131.6-131.51.01-73.14 58.14-132.23 131.6-132.23zm0 227.1c52.22 0 95.18-42.48 95.18-94.87 0-51.9-42.8-95.66-95.18-95.66-52.22 0-94.87 43.76-94.87 95.66.01 52.39 42.65 94.87 94.87 94.87z"></path>
  <path d="m3026.9 2220.11c0-3.51 3.2-6.54 6.87-6.54h9.11l159.22 183.98h.32v-173.36c0-3.67 2.71-6.94 6.87-6.94h23.48c3.52 0 6.7 3.19 6.7 6.94v246.66c0 3.6-3.19 6.47-6.7 6.47h-9.58l-159.22-189.01h-.16v178.39c0 3.67-3.03 7.02-7.02 7.02h-23c-3.51 0-6.87-3.43-6.87-7.11v-246.5z"></path>
  <path d="m3441.17 2436.74c3.2-4.79 6.23-10.38 9.58-14.93 3.35-4.79 8.31-6.22 12.46-3.03 2.23 1.92 30.34 25.32 58.45 25.32 25.23 0 41.52-15.57 41.37-34.1 0-21.96-18.85-36.01-55.26-51.1-37.53-15.65-66.6-35.14-66.75-77.38.16-28.99 22.2-67.95 80.33-67.95 36.73 0 64.2 19 67.88 21.8 2.87 1.51 5.59 6.86 2.08 12.29-2.88 4.32-6.07 9.43-9.1 13.9-3.04 4.95-7.67 6.94-12.78 3.51-2.55-1.43-28.1-18.2-49.51-18.2-30.66 0-41.36 19.56-41.52 33.06.16 20.92 16.13 33.61 46.63 46.15 42.49 17.17 78.9 37.38 78.9 82.09 0 38.1-34.18 69.08-81.77 69.08-44.56.07-72.82-23.32-79.05-28.83-3.06-2.89-5.62-5.53-1.94-11.68z"></path>
</svg>